<svg xmlns="http://www.w3.org/2000/svg" viewBox="0 0 376 1026" width="376" height="1026" style="background:#1a1a2e;font-family:monospace, 'Courier New'">
<rect x="0" y="0" width="376" height="1026" fill="#1a1a2e"/>
<text x="188.0" y="18" font-size="14" fill="#80cbc4" text-anchor="center" dominant-baseline="central" font-family="monospace, 'Courier New'" font-weight="bold">AutoCart3Cycle</text>
<text x="188.0" y="38" font-size="12" fill="#9e9e9e" text-anchor="center" dominant-baseline="central" font-family="monospace, 'Courier New'" font-weight="normal">Block #0 · 13 Network(s)</text>
<rect x="80" y="60.0" width="168" height="60" fill="#222244"/>
<line x1="80" y1="50.0" x2="80" y2="130.0" stroke="#4a4a6a" stroke-width="4"/>
<line x1="248" y1="50.0" x2="248" y2="130.0" stroke="#4a4a6a" stroke-width="4"/>
<text x="44" y="90.0" font-size="11" fill="#e0e0e0" text-anchor="center" dominant-baseline="central" font-family="monospace, 'Courier New'" font-weight="normal">1</text>
<text x="260" y="90.0" font-size="12" fill="#80cbc4" text-anchor="start" dominant-baseline="central" font-family="monospace, 'Courier New'" font-weight="bold">急停+过载安全链</text>
<text x="260" y="108.0" font-size="10" fill="#9e9e9e" text-anchor="start" dominant-baseline="central" font-family="monospace, 'Courier New'" font-weight="normal">急停或过载时切断所有输出，锁存故障</text>
<line x1="80" y1="90.0" x2="80.0" y2="90.0" stroke="#616161" stroke-width="1.2"/>
<g data-type="contact_nc" data-operand="%I0.0">
<line x1="96.0" y1="90.0" x2="109.0" y2="90.0" stroke="#ffa726" stroke-width="2"/>
<line x1="115.0" y1="90.0" x2="128.0" y2="90.0" stroke="#ffa726" stroke-width="2"/>
<line x1="106.0" y1="82.0" x2="118.0" y2="98.0" stroke="#ffa726" stroke-width="2.5"/>
<circle cx="112.0" cy="90.0" r="4" fill="none" stroke="#ffa726" stroke-width="1.5"/>
<text x="112.0" y="66.0" font-size="10" fill="#e0e0e0" text-anchor="center" dominant-baseline="central" font-family="monospace, 'Courier New'" font-weight="normal">%I0.0</text>
</g>
<line x1="128.0" y1="90.0" x2="160.0" y2="90.0" stroke="#616161" stroke-width="1.2"/>
<g data-type="coil" data-operand="%M0.0">
<line x1="160.0" y1="90.0" x2="163.0" y2="90.0" stroke="#66bb6a" stroke-width="2"/>
<line x1="189.0" y1="90.0" x2="192.0" y2="90.0" stroke="#66bb6a" stroke-width="2"/>
<ellipse cx="176.0" cy="90.0" rx="16" ry="13" fill="none" stroke="#66bb6a" stroke-width="1.8"/>
<text x="176.0" y="90.0" font-size="10" fill="#1a1a2e" text-anchor="center" dominant-baseline="central" font-family="monospace, 'Courier New'" font-weight="bold">%M0.0</text>
</g>
<line x1="192.0" y1="90.0" x2="248" y2="90.0" stroke="#616161" stroke-width="1.2"/>
<line x1="80" y1="122.0" x2="80" y2="202.0" stroke="#4a4a6a" stroke-width="4"/>
<line x1="248" y1="122.0" x2="248" y2="202.0" stroke="#4a4a6a" stroke-width="4"/>
<text x="44" y="162.0" font-size="11" fill="#e0e0e0" text-anchor="center" dominant-baseline="central" font-family="monospace, 'Courier New'" font-weight="normal">2</text>
<text x="260" y="162.0" font-size="12" fill="#80cbc4" text-anchor="start" dominant-baseline="central" font-family="monospace, 'Courier New'" font-weight="bold">故障锁存与复位</text>
<text x="260" y="180.0" font-size="10" fill="#9e9e9e" text-anchor="start" dominant-baseline="central" font-family="monospace, 'Courier New'" font-weight="normal">安全链熔断→锁存故障；复位解除</text>
<line x1="80" y1="162.0" x2="80.0" y2="162.0" stroke="#616161" stroke-width="1.2"/>
<g data-type="contact_nc" data-operand="%M0.0">
<line x1="96.0" y1="162.0" x2="109.0" y2="162.0" stroke="#ffa726" stroke-width="2"/>
<line x1="115.0" y1="162.0" x2="128.0" y2="162.0" stroke="#ffa726" stroke-width="2"/>
<line x1="106.0" y1="154.0" x2="118.0" y2="170.0" stroke="#ffa726" stroke-width="2.5"/>
<circle cx="112.0" cy="162.0" r="4" fill="none" stroke="#ffa726" stroke-width="1.5"/>
<text x="112.0" y="138.0" font-size="10" fill="#e0e0e0" text-anchor="center" dominant-baseline="central" font-family="monospace, 'Courier New'" font-weight="normal">%M0.0</text>
</g>
<line x1="128.0" y1="162.0" x2="160.0" y2="162.0" stroke="#616161" stroke-width="1.2"/>
<g data-type="coil_set" data-operand="%M0.2">
<line x1="160.0" y1="162.0" x2="163.0" y2="162.0" stroke="#26a69a" stroke-width="2"/>
<line x1="189.0" y1="162.0" x2="192.0" y2="162.0" stroke="#26a69a" stroke-width="2"/>
<ellipse cx="176.0" cy="162.0" rx="16" ry="13" fill="none" stroke="#26a69a" stroke-width="1.8"/>
<text x="176.0" y="162.0" font-size="10" fill="#1a1a2e" text-anchor="center" dominant-baseline="central" font-family="monospace, 'Courier New'" font-weight="bold">%M0.2 (S)</text>
</g>
<line x1="192.0" y1="162.0" x2="248" y2="162.0" stroke="#616161" stroke-width="1.2"/>
<rect x="80" y="204.0" width="296" height="60" fill="#222244"/>
<line x1="80" y1="194.0" x2="80" y2="274.0" stroke="#4a4a6a" stroke-width="4"/>
<line x1="376" y1="194.0" x2="376" y2="274.0" stroke="#4a4a6a" stroke-width="4"/>
<text x="44" y="234.0" font-size="11" fill="#e0e0e0" text-anchor="center" dominant-baseline="central" font-family="monospace, 'Courier New'" font-weight="normal">3</text>
<text x="388" y="234.0" font-size="12" fill="#80cbc4" text-anchor="start" dominant-baseline="central" font-family="monospace, 'Courier New'" font-weight="bold">启动→前进（State=0→1）</text>
<text x="388" y="252.0" font-size="10" fill="#9e9e9e" text-anchor="start" dominant-baseline="central" font-family="monospace, 'Courier New'" font-weight="normal">启动按钮触发前进，无故障时开始循环</text>
<line x1="80" y1="234.0" x2="80.0" y2="234.0" stroke="#616161" stroke-width="1.2"/>
<g data-type="contact_no" data-operand="%I0.1">
<line x1="96.0" y1="234.0" x2="109.0" y2="234.0" stroke="#29b6f6" stroke-width="2"/>
<line x1="115.0" y1="234.0" x2="128.0" y2="234.0" stroke="#29b6f6" stroke-width="2"/>
<line x1="108.0" y1="227.0" x2="108.0" y2="241.0" stroke="#29b6f6" stroke-width="2"/>
<line x1="116.0" y1="227.0" x2="116.0" y2="241.0" stroke="#29b6f6" stroke-width="2"/>
<text x="112.0" y="210.0" font-size="10" fill="#e0e0e0" text-anchor="center" dominant-baseline="central" font-family="monospace, 'Courier New'" font-weight="normal">%I0.1</text>
</g>
<line x1="128.0" y1="234.0" x2="160.0" y2="234.0" stroke="#616161" stroke-width="1.2"/>
<g data-type="contact_nc" data-operand="%M0.2">
<line x1="160.0" y1="234.0" x2="173.0" y2="234.0" stroke="#ffa726" stroke-width="2"/>
<line x1="179.0" y1="234.0" x2="192.0" y2="234.0" stroke="#ffa726" stroke-width="2"/>
<line x1="170.0" y1="226.0" x2="182.0" y2="242.0" stroke="#ffa726" stroke-width="2.5"/>
<circle cx="176.0" cy="234.0" r="4" fill="none" stroke="#ffa726" stroke-width="1.5"/>
<text x="176.0" y="210.0" font-size="10" fill="#e0e0e0" text-anchor="center" dominant-baseline="central" font-family="monospace, 'Courier New'" font-weight="normal">%M0.2</text>
</g>
<line x1="192.0" y1="234.0" x2="224.0" y2="234.0" stroke="#616161" stroke-width="1.2"/>
<g data-type="contact_nc" data-operand="%M2.0">
<line x1="224.0" y1="234.0" x2="237.0" y2="234.0" stroke="#ffa726" stroke-width="2"/>
<line x1="243.0" y1="234.0" x2="256.0" y2="234.0" stroke="#ffa726" stroke-width="2"/>
<line x1="234.0" y1="226.0" x2="246.0" y2="242.0" stroke="#ffa726" stroke-width="2.5"/>
<circle cx="240.0" cy="234.0" r="4" fill="none" stroke="#ffa726" stroke-width="1.5"/>
<text x="240.0" y="210.0" font-size="10" fill="#e0e0e0" text-anchor="center" dominant-baseline="central" font-family="monospace, 'Courier New'" font-weight="normal">%M2.0</text>
</g>
<line x1="256.0" y1="234.0" x2="288.0" y2="234.0" stroke="#616161" stroke-width="1.2"/>
<g data-type="coil_set" data-operand="%M2.1">
<line x1="288.0" y1="234.0" x2="291.0" y2="234.0" stroke="#26a69a" stroke-width="2"/>
<line x1="317.0" y1="234.0" x2="320.0" y2="234.0" stroke="#26a69a" stroke-width="2"/>
<ellipse cx="304.0" cy="234.0" rx="16" ry="13" fill="none" stroke="#26a69a" stroke-width="1.8"/>
<text x="304.0" y="234.0" font-size="10" fill="#1a1a2e" text-anchor="center" dominant-baseline="central" font-family="monospace, 'Courier New'" font-weight="bold">%M2.1 (S)</text>
</g>
<line x1="320.0" y1="234.0" x2="376" y2="234.0" stroke="#616161" stroke-width="1.2"/>
<line x1="80" y1="266.0" x2="80" y2="346.0" stroke="#4a4a6a" stroke-width="4"/>
<line x1="312" y1="266.0" x2="312" y2="346.0" stroke="#4a4a6a" stroke-width="4"/>
<text x="44" y="306.0" font-size="11" fill="#e0e0e0" text-anchor="center" dominant-baseline="central" font-family="monospace, 'Courier New'" font-weight="normal">4</text>
<text x="324" y="306.0" font-size="12" fill="#80cbc4" text-anchor="start" dominant-baseline="central" font-family="monospace, 'Courier New'" font-weight="bold">前进→前限位→卸载（State=1→2）</text>
<text x="324" y="324.0" font-size="10" fill="#9e9e9e" text-anchor="start" dominant-baseline="central" font-family="monospace, 'Courier New'" font-weight="normal">前进输出，到前限位后转卸载</text>
<line x1="80" y1="306.0" x2="80.0" y2="306.0" stroke="#616161" stroke-width="1.2"/>
<g data-type="contact_no" data-operand="%M2.1">
<line x1="96.0" y1="306.0" x2="109.0" y2="306.0" stroke="#29b6f6" stroke-width="2"/>
<line x1="115.0" y1="306.0" x2="128.0" y2="306.0" stroke="#29b6f6" stroke-width="2"/>
<line x1="108.0" y1="299.0" x2="108.0" y2="313.0" stroke="#29b6f6" stroke-width="2"/>
<line x1="116.0" y1="299.0" x2="116.0" y2="313.0" stroke="#29b6f6" stroke-width="2"/>
<text x="112.0" y="282.0" font-size="10" fill="#e0e0e0" text-anchor="center" dominant-baseline="central" font-family="monospace, 'Courier New'" font-weight="normal">%M2.1</text>
</g>
<line x1="128.0" y1="306.0" x2="160.0" y2="306.0" stroke="#616161" stroke-width="1.2"/>
<g data-type="coil" data-operand="%Q0.0">
<line x1="160.0" y1="306.0" x2="163.0" y2="306.0" stroke="#66bb6a" stroke-width="2"/>
<line x1="189.0" y1="306.0" x2="192.0" y2="306.0" stroke="#66bb6a" stroke-width="2"/>
<ellipse cx="176.0" cy="306.0" rx="16" ry="13" fill="none" stroke="#66bb6a" stroke-width="1.8"/>
<text x="176.0" y="306.0" font-size="10" fill="#1a1a2e" text-anchor="center" dominant-baseline="central" font-family="monospace, 'Courier New'" font-weight="bold">%Q0.0</text>
</g>
<line x1="192.0" y1="306.0" x2="224.0" y2="306.0" stroke="#616161" stroke-width="1.2"/>
<g data-type="coil" data-operand="%Q0.2">
<line x1="224.0" y1="306.0" x2="227.0" y2="306.0" stroke="#66bb6a" stroke-width="2"/>
<line x1="253.0" y1="306.0" x2="256.0" y2="306.0" stroke="#66bb6a" stroke-width="2"/>
<ellipse cx="240.0" cy="306.0" rx="16" ry="13" fill="none" stroke="#66bb6a" stroke-width="1.8"/>
<text x="240.0" y="306.0" font-size="10" fill="#1a1a2e" text-anchor="center" dominant-baseline="central" font-family="monospace, 'Courier New'" font-weight="bold">%Q0.2</text>
</g>
<line x1="256.0" y1="306.0" x2="312" y2="306.0" stroke="#616161" stroke-width="1.2"/>
<rect x="80" y="348.0" width="296" height="60" fill="#222244"/>
<line x1="80" y1="338.0" x2="80" y2="418.0" stroke="#4a4a6a" stroke-width="4"/>
<line x1="376" y1="338.0" x2="376" y2="418.0" stroke="#4a4a6a" stroke-width="4"/>
<text x="44" y="378.0" font-size="11" fill="#e0e0e0" text-anchor="center" dominant-baseline="central" font-family="monospace, 'Courier New'" font-weight="normal">5</text>
<text x="388" y="378.0" font-size="12" fill="#80cbc4" text-anchor="start" dominant-baseline="central" font-family="monospace, 'Courier New'" font-weight="bold">前进→前限位检测</text>
<text x="388" y="396.0" font-size="10" fill="#9e9e9e" text-anchor="start" dominant-baseline="central" font-family="monospace, 'Courier New'" font-weight="normal">到前限位后清除前进状态，设置卸载状态</text>
<line x1="80" y1="378.0" x2="80.0" y2="378.0" stroke="#616161" stroke-width="1.2"/>
<g data-type="contact_no" data-operand="%M2.1">
<line x1="96.0" y1="378.0" x2="109.0" y2="378.0" stroke="#29b6f6" stroke-width="2"/>
<line x1="115.0" y1="378.0" x2="128.0" y2="378.0" stroke="#29b6f6" stroke-width="2"/>
<line x1="108.0" y1="371.0" x2="108.0" y2="385.0" stroke="#29b6f6" stroke-width="2"/>
<line x1="116.0" y1="371.0" x2="116.0" y2="385.0" stroke="#29b6f6" stroke-width="2"/>
<text x="112.0" y="354.0" font-size="10" fill="#e0e0e0" text-anchor="center" dominant-baseline="central" font-family="monospace, 'Courier New'" font-weight="normal">%M2.1</text>
</g>
<line x1="128.0" y1="378.0" x2="160.0" y2="378.0" stroke="#616161" stroke-width="1.2"/>
<g data-type="contact_no" data-operand="%I0.2">
<line x1="160.0" y1="378.0" x2="173.0" y2="378.0" stroke="#29b6f6" stroke-width="2"/>
<line x1="179.0" y1="378.0" x2="192.0" y2="378.0" stroke="#29b6f6" stroke-width="2"/>
<line x1="172.0" y1="371.0" x2="172.0" y2="385.0" stroke="#29b6f6" stroke-width="2"/>
<line x1="180.0" y1="371.0" x2="180.0" y2="385.0" stroke="#29b6f6" stroke-width="2"/>
<text x="176.0" y="354.0" font-size="10" fill="#e0e0e0" text-anchor="center" dominant-baseline="central" font-family="monospace, 'Courier New'" font-weight="normal">%I0.2</text>
</g>
<line x1="192.0" y1="378.0" x2="224.0" y2="378.0" stroke="#616161" stroke-width="1.2"/>
<g data-type="coil_reset" data-operand="%M2.1">
<line x1="224.0" y1="378.0" x2="227.0" y2="378.0" stroke="#e53935" stroke-width="2"/>
<line x1="253.0" y1="378.0" x2="256.0" y2="378.0" stroke="#e53935" stroke-width="2"/>
<ellipse cx="240.0" cy="378.0" rx="16" ry="13" fill="none" stroke="#e53935" stroke-width="1.8"/>
<text x="240.0" y="378.0" font-size="10" fill="#1a1a2e" text-anchor="center" dominant-baseline="central" font-family="monospace, 'Courier New'" font-weight="bold">%M2.1 (R)</text>
</g>
<line x1="256.0" y1="378.0" x2="288.0" y2="378.0" stroke="#616161" stroke-width="1.2"/>
<g data-type="coil_set" data-operand="%M2.2">
<line x1="288.0" y1="378.0" x2="291.0" y2="378.0" stroke="#26a69a" stroke-width="2"/>
<line x1="317.0" y1="378.0" x2="320.0" y2="378.0" stroke="#26a69a" stroke-width="2"/>
<ellipse cx="304.0" cy="378.0" rx="16" ry="13" fill="none" stroke="#26a69a" stroke-width="1.8"/>
<text x="304.0" y="378.0" font-size="10" fill="#1a1a2e" text-anchor="center" dominant-baseline="central" font-family="monospace, 'Courier New'" font-weight="bold">%M2.2 (S)</text>
</g>
<line x1="320.0" y1="378.0" x2="376" y2="378.0" stroke="#616161" stroke-width="1.2"/>
<line x1="80" y1="410.0" x2="80" y2="490.0" stroke="#4a4a6a" stroke-width="4"/>
<line x1="248" y1="410.0" x2="248" y2="490.0" stroke="#4a4a6a" stroke-width="4"/>
<text x="44" y="450.0" font-size="11" fill="#e0e0e0" text-anchor="center" dominant-baseline="central" font-family="monospace, 'Courier New'" font-weight="normal">6</text>
<text x="260" y="450.0" font-size="12" fill="#80cbc4" text-anchor="start" dominant-baseline="central" font-family="monospace, 'Courier New'" font-weight="bold">卸载定时（State=2→3）</text>
<text x="260" y="468.0" font-size="10" fill="#9e9e9e" text-anchor="start" dominant-baseline="central" font-family="monospace, 'Courier New'" font-weight="normal">TON定时5秒，到后转后退</text>
<line x1="80" y1="450.0" x2="80.0" y2="450.0" stroke="#616161" stroke-width="1.2"/>
<g data-type="contact_no" data-operand="%M2.2">
<line x1="96.0" y1="450.0" x2="109.0" y2="450.0" stroke="#29b6f6" stroke-width="2"/>
<line x1="115.0" y1="450.0" x2="128.0" y2="450.0" stroke="#29b6f6" stroke-width="2"/>
<line x1="108.0" y1="443.0" x2="108.0" y2="457.0" stroke="#29b6f6" stroke-width="2"/>
<line x1="116.0" y1="443.0" x2="116.0" y2="457.0" stroke="#29b6f6" stroke-width="2"/>
<text x="112.0" y="426.0" font-size="10" fill="#e0e0e0" text-anchor="center" dominant-baseline="central" font-family="monospace, 'Courier New'" font-weight="normal">%M2.2</text>
</g>
<line x1="128.0" y1="450.0" x2="160.0" y2="450.0" stroke="#616161" stroke-width="1.2"/>
<g data-type="unknown" data-operand="">
<rect x="156.0" y="18.0" width="40" height="24" rx="3" fill="#fff0f0" stroke="#e74c3c"/>
<text x="176.0" y="30.0" font-size="10" fill="#e74c3c" text-anchor="center" dominant-baseline="central" font-family="monospace, 'Courier New'" font-weight="bold">?unknown</text>
</g>
<line x1="192.0" y1="450.0" x2="248" y2="450.0" stroke="#616161" stroke-width="1.2"/>
<rect x="80" y="492.0" width="296" height="60" fill="#222244"/>
<line x1="80" y1="482.0" x2="80" y2="562.0" stroke="#4a4a6a" stroke-width="4"/>
<line x1="376" y1="482.0" x2="376" y2="562.0" stroke="#4a4a6a" stroke-width="4"/>
<text x="44" y="522.0" font-size="11" fill="#e0e0e0" text-anchor="center" dominant-baseline="central" font-family="monospace, 'Courier New'" font-weight="normal">7</text>
<text x="388" y="522.0" font-size="12" fill="#80cbc4" text-anchor="start" dominant-baseline="central" font-family="monospace, 'Courier New'" font-weight="bold">卸载完成→后退（State=2→3）</text>
<text x="388" y="540.0" font-size="10" fill="#9e9e9e" text-anchor="start" dominant-baseline="central" font-family="monospace, 'Courier New'" font-weight="normal">定时到后清除卸载状态，设置后退状态</text>
<line x1="80" y1="522.0" x2="80.0" y2="522.0" stroke="#616161" stroke-width="1.2"/>
<g data-type="unknown" data-operand="">
<rect x="92.0" y="18.0" width="40" height="24" rx="3" fill="#fff0f0" stroke="#e74c3c"/>
<text x="112.0" y="30.0" font-size="10" fill="#e74c3c" text-anchor="center" dominant-baseline="central" font-family="monospace, 'Courier New'" font-weight="bold">?unknown</text>
</g>
<line x1="128.0" y1="522.0" x2="160.0" y2="522.0" stroke="#616161" stroke-width="1.2"/>
<g data-type="contact_no" data-operand="T1">
<line x1="160.0" y1="522.0" x2="173.0" y2="522.0" stroke="#29b6f6" stroke-width="2"/>
<line x1="179.0" y1="522.0" x2="192.0" y2="522.0" stroke="#29b6f6" stroke-width="2"/>
<line x1="172.0" y1="515.0" x2="172.0" y2="529.0" stroke="#29b6f6" stroke-width="2"/>
<line x1="180.0" y1="515.0" x2="180.0" y2="529.0" stroke="#29b6f6" stroke-width="2"/>
<text x="176.0" y="498.0" font-size="10" fill="#e0e0e0" text-anchor="center" dominant-baseline="central" font-family="monospace, 'Courier New'" font-weight="normal">T1</text>
</g>
<line x1="192.0" y1="522.0" x2="224.0" y2="522.0" stroke="#616161" stroke-width="1.2"/>
<g data-type="coil_reset" data-operand="%M2.2">
<line x1="224.0" y1="522.0" x2="227.0" y2="522.0" stroke="#e53935" stroke-width="2"/>
<line x1="253.0" y1="522.0" x2="256.0" y2="522.0" stroke="#e53935" stroke-width="2"/>
<ellipse cx="240.0" cy="522.0" rx="16" ry="13" fill="none" stroke="#e53935" stroke-width="1.8"/>
<text x="240.0" y="522.0" font-size="10" fill="#1a1a2e" text-anchor="center" dominant-baseline="central" font-family="monospace, 'Courier New'" font-weight="bold">%M2.2 (R)</text>
</g>
<line x1="256.0" y1="522.0" x2="288.0" y2="522.0" stroke="#616161" stroke-width="1.2"/>
<g data-type="coil_set" data-operand="%M2.3">
<line x1="288.0" y1="522.0" x2="291.0" y2="522.0" stroke="#26a69a" stroke-width="2"/>
<line x1="317.0" y1="522.0" x2="320.0" y2="522.0" stroke="#26a69a" stroke-width="2"/>
<ellipse cx="304.0" cy="522.0" rx="16" ry="13" fill="none" stroke="#26a69a" stroke-width="1.8"/>
<text x="304.0" y="522.0" font-size="10" fill="#1a1a2e" text-anchor="center" dominant-baseline="central" font-family="monospace, 'Courier New'" font-weight="bold">%M2.3 (S)</text>
</g>
<line x1="320.0" y1="522.0" x2="376" y2="522.0" stroke="#616161" stroke-width="1.2"/>
<line x1="80" y1="554.0" x2="80" y2="634.0" stroke="#4a4a6a" stroke-width="4"/>
<line x1="312" y1="554.0" x2="312" y2="634.0" stroke="#4a4a6a" stroke-width="4"/>
<text x="44" y="594.0" font-size="11" fill="#e0e0e0" text-anchor="center" dominant-baseline="central" font-family="monospace, 'Courier New'" font-weight="normal">8</text>
<text x="324" y="594.0" font-size="12" fill="#80cbc4" text-anchor="start" dominant-baseline="central" font-family="monospace, 'Courier New'" font-weight="bold">后退输出（State=3）</text>
<text x="324" y="612.0" font-size="10" fill="#9e9e9e" text-anchor="start" dominant-baseline="central" font-family="monospace, 'Courier New'" font-weight="normal">后退运行，到后限位转装载</text>
<line x1="80" y1="594.0" x2="80.0" y2="594.0" stroke="#616161" stroke-width="1.2"/>
<g data-type="contact_no" data-operand="%M2.3">
<line x1="96.0" y1="594.0" x2="109.0" y2="594.0" stroke="#29b6f6" stroke-width="2"/>
<line x1="115.0" y1="594.0" x2="128.0" y2="594.0" stroke="#29b6f6" stroke-width="2"/>
<line x1="108.0" y1="587.0" x2="108.0" y2="601.0" stroke="#29b6f6" stroke-width="2"/>
<line x1="116.0" y1="587.0" x2="116.0" y2="601.0" stroke="#29b6f6" stroke-width="2"/>
<text x="112.0" y="570.0" font-size="10" fill="#e0e0e0" text-anchor="center" dominant-baseline="central" font-family="monospace, 'Courier New'" font-weight="normal">%M2.3</text>
</g>
<line x1="128.0" y1="594.0" x2="160.0" y2="594.0" stroke="#616161" stroke-width="1.2"/>
<g data-type="coil" data-operand="%Q0.1">
<line x1="160.0" y1="594.0" x2="163.0" y2="594.0" stroke="#66bb6a" stroke-width="2"/>
<line x1="189.0" y1="594.0" x2="192.0" y2="594.0" stroke="#66bb6a" stroke-width="2"/>
<ellipse cx="176.0" cy="594.0" rx="16" ry="13" fill="none" stroke="#66bb6a" stroke-width="1.8"/>
<text x="176.0" y="594.0" font-size="10" fill="#1a1a2e" text-anchor="center" dominant-baseline="central" font-family="monospace, 'Courier New'" font-weight="bold">%Q0.1</text>
</g>
<line x1="192.0" y1="594.0" x2="224.0" y2="594.0" stroke="#616161" stroke-width="1.2"/>
<g data-type="coil" data-operand="%Q0.2">
<line x1="224.0" y1="594.0" x2="227.0" y2="594.0" stroke="#66bb6a" stroke-width="2"/>
<line x1="253.0" y1="594.0" x2="256.0" y2="594.0" stroke="#66bb6a" stroke-width="2"/>
<ellipse cx="240.0" cy="594.0" rx="16" ry="13" fill="none" stroke="#66bb6a" stroke-width="1.8"/>
<text x="240.0" y="594.0" font-size="10" fill="#1a1a2e" text-anchor="center" dominant-baseline="central" font-family="monospace, 'Courier New'" font-weight="bold">%Q0.2</text>
</g>
<line x1="256.0" y1="594.0" x2="312" y2="594.0" stroke="#616161" stroke-width="1.2"/>
<rect x="80" y="636.0" width="296" height="60" fill="#222244"/>
<line x1="80" y1="626.0" x2="80" y2="706.0" stroke="#4a4a6a" stroke-width="4"/>
<line x1="376" y1="626.0" x2="376" y2="706.0" stroke="#4a4a6a" stroke-width="4"/>
<text x="44" y="666.0" font-size="11" fill="#e0e0e0" text-anchor="center" dominant-baseline="central" font-family="monospace, 'Courier New'" font-weight="normal">9</text>
<text x="388" y="666.0" font-size="12" fill="#80cbc4" text-anchor="start" dominant-baseline="central" font-family="monospace, 'Courier New'" font-weight="bold">后退→后限位→装载（State=3→4）</text>
<text x="388" y="684.0" font-size="10" fill="#9e9e9e" text-anchor="start" dominant-baseline="central" font-family="monospace, 'Courier New'" font-weight="normal">到后限位清除后退设装载</text>
<line x1="80" y1="666.0" x2="80.0" y2="666.0" stroke="#616161" stroke-width="1.2"/>
<g data-type="contact_no" data-operand="%M2.3">
<line x1="96.0" y1="666.0" x2="109.0" y2="666.0" stroke="#29b6f6" stroke-width="2"/>
<line x1="115.0" y1="666.0" x2="128.0" y2="666.0" stroke="#29b6f6" stroke-width="2"/>
<line x1="108.0" y1="659.0" x2="108.0" y2="673.0" stroke="#29b6f6" stroke-width="2"/>
<line x1="116.0" y1="659.0" x2="116.0" y2="673.0" stroke="#29b6f6" stroke-width="2"/>
<text x="112.0" y="642.0" font-size="10" fill="#e0e0e0" text-anchor="center" dominant-baseline="central" font-family="monospace, 'Courier New'" font-weight="normal">%M2.3</text>
</g>
<line x1="128.0" y1="666.0" x2="160.0" y2="666.0" stroke="#616161" stroke-width="1.2"/>
<g data-type="contact_no" data-operand="%I0.3">
<line x1="160.0" y1="666.0" x2="173.0" y2="666.0" stroke="#29b6f6" stroke-width="2"/>
<line x1="179.0" y1="666.0" x2="192.0" y2="666.0" stroke="#29b6f6" stroke-width="2"/>
<line x1="172.0" y1="659.0" x2="172.0" y2="673.0" stroke="#29b6f6" stroke-width="2"/>
<line x1="180.0" y1="659.0" x2="180.0" y2="673.0" stroke="#29b6f6" stroke-width="2"/>
<text x="176.0" y="642.0" font-size="10" fill="#e0e0e0" text-anchor="center" dominant-baseline="central" font-family="monospace, 'Courier New'" font-weight="normal">%I0.3</text>
</g>
<line x1="192.0" y1="666.0" x2="224.0" y2="666.0" stroke="#616161" stroke-width="1.2"/>
<g data-type="coil_reset" data-operand="%M2.3">
<line x1="224.0" y1="666.0" x2="227.0" y2="666.0" stroke="#e53935" stroke-width="2"/>
<line x1="253.0" y1="666.0" x2="256.0" y2="666.0" stroke="#e53935" stroke-width="2"/>
<ellipse cx="240.0" cy="666.0" rx="16" ry="13" fill="none" stroke="#e53935" stroke-width="1.8"/>
<text x="240.0" y="666.0" font-size="10" fill="#1a1a2e" text-anchor="center" dominant-baseline="central" font-family="monospace, 'Courier New'" font-weight="bold">%M2.3 (R)</text>
</g>
<line x1="256.0" y1="666.0" x2="288.0" y2="666.0" stroke="#616161" stroke-width="1.2"/>
<g data-type="coil_set" data-operand="%M2.4">
<line x1="288.0" y1="666.0" x2="291.0" y2="666.0" stroke="#26a69a" stroke-width="2"/>
<line x1="317.0" y1="666.0" x2="320.0" y2="666.0" stroke="#26a69a" stroke-width="2"/>
<ellipse cx="304.0" cy="666.0" rx="16" ry="13" fill="none" stroke="#26a69a" stroke-width="1.8"/>
<text x="304.0" y="666.0" font-size="10" fill="#1a1a2e" text-anchor="center" dominant-baseline="central" font-family="monospace, 'Courier New'" font-weight="bold">%M2.4 (S)</text>
</g>
<line x1="320.0" y1="666.0" x2="376" y2="666.0" stroke="#616161" stroke-width="1.2"/>
<line x1="80" y1="698.0" x2="80" y2="778.0" stroke="#4a4a6a" stroke-width="4"/>
<line x1="248" y1="698.0" x2="248" y2="778.0" stroke="#4a4a6a" stroke-width="4"/>
<text x="44" y="738.0" font-size="11" fill="#e0e0e0" text-anchor="center" dominant-baseline="central" font-family="monospace, 'Courier New'" font-weight="normal">10</text>
<text x="260" y="738.0" font-size="12" fill="#80cbc4" text-anchor="start" dominant-baseline="central" font-family="monospace, 'Courier New'" font-weight="bold">装载定时（State=4→0/1）</text>
<text x="260" y="756.0" font-size="10" fill="#9e9e9e" text-anchor="start" dominant-baseline="central" font-family="monospace, 'Courier New'" font-weight="normal">TON定时3秒，到后计数+1，判断是否继续循环</text>
<line x1="80" y1="738.0" x2="80.0" y2="738.0" stroke="#616161" stroke-width="1.2"/>
<g data-type="contact_no" data-operand="%M2.4">
<line x1="96.0" y1="738.0" x2="109.0" y2="738.0" stroke="#29b6f6" stroke-width="2"/>
<line x1="115.0" y1="738.0" x2="128.0" y2="738.0" stroke="#29b6f6" stroke-width="2"/>
<line x1="108.0" y1="731.0" x2="108.0" y2="745.0" stroke="#29b6f6" stroke-width="2"/>
<line x1="116.0" y1="731.0" x2="116.0" y2="745.0" stroke="#29b6f6" stroke-width="2"/>
<text x="112.0" y="714.0" font-size="10" fill="#e0e0e0" text-anchor="center" dominant-baseline="central" font-family="monospace, 'Courier New'" font-weight="normal">%M2.4</text>
</g>
<line x1="128.0" y1="738.0" x2="160.0" y2="738.0" stroke="#616161" stroke-width="1.2"/>
<g data-type="unknown" data-operand="">
<rect x="156.0" y="18.0" width="40" height="24" rx="3" fill="#fff0f0" stroke="#e74c3c"/>
<text x="176.0" y="30.0" font-size="10" fill="#e74c3c" text-anchor="center" dominant-baseline="central" font-family="monospace, 'Courier New'" font-weight="bold">?unknown</text>
</g>
<line x1="192.0" y1="738.0" x2="248" y2="738.0" stroke="#616161" stroke-width="1.2"/>
<rect x="80" y="780.0" width="296" height="60" fill="#222244"/>
<line x1="80" y1="770.0" x2="80" y2="850.0" stroke="#4a4a6a" stroke-width="4"/>
<line x1="376" y1="770.0" x2="376" y2="850.0" stroke="#4a4a6a" stroke-width="4"/>
<text x="44" y="810.0" font-size="11" fill="#e0e0e0" text-anchor="center" dominant-baseline="central" font-family="monospace, 'Courier New'" font-weight="normal">11</text>
<text x="388" y="810.0" font-size="12" fill="#80cbc4" text-anchor="start" dominant-baseline="central" font-family="monospace, 'Courier New'" font-weight="bold">装载完成→计数判断</text>
<text x="388" y="828.0" font-size="10" fill="#9e9e9e" text-anchor="start" dominant-baseline="central" font-family="monospace, 'Courier New'" font-weight="normal">装载定时到，自增计数。满3次→停止，不满→继续前进</text>
<line x1="80" y1="810.0" x2="80.0" y2="810.0" stroke="#616161" stroke-width="1.2"/>
<g data-type="unknown" data-operand="">
<rect x="92.0" y="18.0" width="40" height="24" rx="3" fill="#fff0f0" stroke="#e74c3c"/>
<text x="112.0" y="30.0" font-size="10" fill="#e74c3c" text-anchor="center" dominant-baseline="central" font-family="monospace, 'Courier New'" font-weight="bold">?unknown</text>
</g>
<line x1="128.0" y1="810.0" x2="160.0" y2="810.0" stroke="#616161" stroke-width="1.2"/>
<g data-type="contact_no" data-operand="T2">
<line x1="160.0" y1="810.0" x2="173.0" y2="810.0" stroke="#29b6f6" stroke-width="2"/>
<line x1="179.0" y1="810.0" x2="192.0" y2="810.0" stroke="#29b6f6" stroke-width="2"/>
<line x1="172.0" y1="803.0" x2="172.0" y2="817.0" stroke="#29b6f6" stroke-width="2"/>
<line x1="180.0" y1="803.0" x2="180.0" y2="817.0" stroke="#29b6f6" stroke-width="2"/>
<text x="176.0" y="786.0" font-size="10" fill="#e0e0e0" text-anchor="center" dominant-baseline="central" font-family="monospace, 'Courier New'" font-weight="normal">T2</text>
</g>
<line x1="192.0" y1="810.0" x2="224.0" y2="810.0" stroke="#616161" stroke-width="1.2"/>
<g data-type="coil_reset" data-operand="%M2.4">
<line x1="224.0" y1="810.0" x2="227.0" y2="810.0" stroke="#e53935" stroke-width="2"/>
<line x1="253.0" y1="810.0" x2="256.0" y2="810.0" stroke="#e53935" stroke-width="2"/>
<ellipse cx="240.0" cy="810.0" rx="16" ry="13" fill="none" stroke="#e53935" stroke-width="1.8"/>
<text x="240.0" y="810.0" font-size="10" fill="#1a1a2e" text-anchor="center" dominant-baseline="central" font-family="monospace, 'Courier New'" font-weight="bold">%M2.4 (R)</text>
</g>
<line x1="256.0" y1="810.0" x2="288.0" y2="810.0" stroke="#616161" stroke-width="1.2"/>
<g data-type="coil" data-operand="%M3.0">
<line x1="288.0" y1="810.0" x2="291.0" y2="810.0" stroke="#66bb6a" stroke-width="2"/>
<line x1="317.0" y1="810.0" x2="320.0" y2="810.0" stroke="#66bb6a" stroke-width="2"/>
<ellipse cx="304.0" cy="810.0" rx="16" ry="13" fill="none" stroke="#66bb6a" stroke-width="1.8"/>
<text x="304.0" y="810.0" font-size="10" fill="#1a1a2e" text-anchor="center" dominant-baseline="central" font-family="monospace, 'Courier New'" font-weight="bold">%M3.0</text>
</g>
<line x1="320.0" y1="810.0" x2="376" y2="810.0" stroke="#616161" stroke-width="1.2"/>
<line x1="80" y1="842.0" x2="80" y2="922.0" stroke="#4a4a6a" stroke-width="4"/>
<line x1="248" y1="842.0" x2="248" y2="922.0" stroke="#4a4a6a" stroke-width="4"/>
<text x="44" y="882.0" font-size="11" fill="#e0e0e0" text-anchor="center" dominant-baseline="central" font-family="monospace, 'Courier New'" font-weight="normal">12</text>
<text x="260" y="882.0" font-size="12" fill="#80cbc4" text-anchor="start" dominant-baseline="central" font-family="monospace, 'Courier New'" font-weight="bold">计数 ≥ 3 ? → 停止 / 继续</text>
<text x="260" y="900.0" font-size="10" fill="#9e9e9e" text-anchor="start" dominant-baseline="central" font-family="monospace, 'Courier New'" font-weight="normal">计数满3次设 bCycleDone，否则设 bStateFwd 继续</text>
<line x1="80" y1="882.0" x2="80.0" y2="882.0" stroke="#616161" stroke-width="1.2"/>
<g data-type="contact_no" data-operand="%M3.1">
<line x1="96.0" y1="882.0" x2="109.0" y2="882.0" stroke="#29b6f6" stroke-width="2"/>
<line x1="115.0" y1="882.0" x2="128.0" y2="882.0" stroke="#29b6f6" stroke-width="2"/>
<line x1="108.0" y1="875.0" x2="108.0" y2="889.0" stroke="#29b6f6" stroke-width="2"/>
<line x1="116.0" y1="875.0" x2="116.0" y2="889.0" stroke="#29b6f6" stroke-width="2"/>
<text x="112.0" y="858.0" font-size="10" fill="#e0e0e0" text-anchor="center" dominant-baseline="central" font-family="monospace, 'Courier New'" font-weight="normal">%M3.1</text>
</g>
<line x1="128.0" y1="882.0" x2="160.0" y2="882.0" stroke="#616161" stroke-width="1.2"/>
<g data-type="coil_set" data-operand="%M2.0">
<line x1="160.0" y1="882.0" x2="163.0" y2="882.0" stroke="#26a69a" stroke-width="2"/>
<line x1="189.0" y1="882.0" x2="192.0" y2="882.0" stroke="#26a69a" stroke-width="2"/>
<ellipse cx="176.0" cy="882.0" rx="16" ry="13" fill="none" stroke="#26a69a" stroke-width="1.8"/>
<text x="176.0" y="882.0" font-size="10" fill="#1a1a2e" text-anchor="center" dominant-baseline="central" font-family="monospace, 'Courier New'" font-weight="bold">%M2.0 (S)</text>
</g>
<line x1="192.0" y1="882.0" x2="248" y2="882.0" stroke="#616161" stroke-width="1.2"/>
<rect x="80" y="924.0" width="168" height="60" fill="#222244"/>
<line x1="80" y1="914.0" x2="80" y2="994.0" stroke="#4a4a6a" stroke-width="4"/>
<line x1="248" y1="914.0" x2="248" y2="994.0" stroke="#4a4a6a" stroke-width="4"/>
<text x="44" y="954.0" font-size="11" fill="#e0e0e0" text-anchor="center" dominant-baseline="central" font-family="monospace, 'Courier New'" font-weight="normal">13</text>
<text x="260" y="954.0" font-size="12" fill="#80cbc4" text-anchor="start" dominant-baseline="central" font-family="monospace, 'Courier New'" font-weight="bold">故障输出</text>
<text x="260" y="972.0" font-size="10" fill="#9e9e9e" text-anchor="start" dominant-baseline="central" font-family="monospace, 'Courier New'" font-weight="normal">故障锁存位驱动故障灯</text>
<line x1="80" y1="954.0" x2="80.0" y2="954.0" stroke="#616161" stroke-width="1.2"/>
<g data-type="contact_no" data-operand="%M0.2">
<line x1="96.0" y1="954.0" x2="109.0" y2="954.0" stroke="#29b6f6" stroke-width="2"/>
<line x1="115.0" y1="954.0" x2="128.0" y2="954.0" stroke="#29b6f6" stroke-width="2"/>
<line x1="108.0" y1="947.0" x2="108.0" y2="961.0" stroke="#29b6f6" stroke-width="2"/>
<line x1="116.0" y1="947.0" x2="116.0" y2="961.0" stroke="#29b6f6" stroke-width="2"/>
<text x="112.0" y="930.0" font-size="10" fill="#e0e0e0" text-anchor="center" dominant-baseline="central" font-family="monospace, 'Courier New'" font-weight="normal">%M0.2</text>
</g>
<line x1="128.0" y1="954.0" x2="160.0" y2="954.0" stroke="#616161" stroke-width="1.2"/>
<g data-type="coil" data-operand="%Q0.3">
<line x1="160.0" y1="954.0" x2="163.0" y2="954.0" stroke="#66bb6a" stroke-width="2"/>
<line x1="189.0" y1="954.0" x2="192.0" y2="954.0" stroke="#66bb6a" stroke-width="2"/>
<ellipse cx="176.0" cy="954.0" rx="16" ry="13" fill="none" stroke="#66bb6a" stroke-width="1.8"/>
<text x="176.0" y="954.0" font-size="10" fill="#1a1a2e" text-anchor="center" dominant-baseline="central" font-family="monospace, 'Courier New'" font-weight="bold">%Q0.3</text>
</g>
<line x1="192.0" y1="954.0" x2="248" y2="954.0" stroke="#616161" stroke-width="1.2"/>
</svg>